External Loads File
version=1
nRows=55
nColumns=13
Range=5.000000e-03-10 seconds
endheader
time 	forceRightX 	forceRightY 	forceRightZ 	pointRightX 	pointRightY 	pointRightZ 	forceLeftX 	forceLeftY 	forceLeftZ 	pointLeftX 	pointLeftY 	pointLeftZ 		
0.005000 20.043524 125.077560 -0.000000 0.442036 0.439970 -0.196094 6.664725 153.659872 -0.000000 0.192040 0.221502 -0.440465
0.010000 19.826223 125.800507 -0.000000 0.441988 0.439992 -0.196098 6.251792 153.998509 -0.000000 0.192031 0.221497 -0.440475
0.015000 19.671203 126.543990 -0.000000 0.441941 0.440006 -0.196100 5.953464 154.394428 -0.000000 0.192039 0.221464 -0.440478
0.020000 19.638109 127.313974 -0.000000 0.441720 0.439849 -0.196003 5.809019 154.828043 -0.000000 0.192059 0.221437 -0.440472
0.025000 19.545045 128.111666 -0.000000 0.441579 0.440429 -0.195838 5.562279 155.245054 -0.000000 0.192023 0.221455 -0.440379
0.030000 19.624357 128.849762 -0.000000 0.441482 0.440550 -0.195794 5.473213 155.556185 -0.000000 0.192055 0.221430 -0.440363
0.035000 19.722791 129.499394 -0.000000 0.441415 0.440614 -0.195816 5.343305 155.689294 -0.000000 0.192097 0.221386 -0.440358
0.040000 19.779018 130.026445 -0.000000 0.441353 0.440664 -0.195805 5.105301 155.586254 -0.000000 0.192149 0.221352 -0.440360
0.045000 19.741186 130.410808 -0.000000 0.441300 0.440720 -0.195800 4.705947 155.215232 -0.000000 0.192207 0.221294 -0.440344
0.050000 19.619797 130.639591 -0.000000 0.441276 0.440764 -0.195807 4.153844 154.578026 -0.000000 0.192261 0.221248 -0.440333
0.055000 19.430758 130.703994 -0.000000 0.441248 0.440787 -0.195790 3.460787 153.716293 -0.000000 0.192311 0.221233 -0.440348
0.060000 19.195387 130.592183 -0.000000 0.441260 0.440798 -0.195800 2.653835 152.699097 -0.000000 0.192356 0.221200 -0.440334
0.065000 18.933576 130.306465 -0.000000 0.441277 0.440817 -0.195802 1.785799 151.609707 -0.000000 0.192385 0.221183 -0.440354
0.070000 18.662489 129.876790 -0.000000 0.441312 0.440811 -0.195815 0.934560 150.520025 -0.000000 0.192403 0.221181 -0.440356
0.075000 18.361904 129.348346 -0.000000 0.441360 0.440807 -0.195812 0.139509 149.473193 -0.000000 0.192414 0.221186 -0.440345
0.080000 18.030791 128.755033 -0.000000 0.441418 0.440802 -0.195820 -0.558646 148.495350 -0.000000 0.192424 0.221225 -0.440363
0.085000 17.660984 128.126705 -0.000000 0.441471 0.440788 -0.195833 -1.168128 147.604576 -0.000000 0.192410 0.221253 -0.440341
0.090000 17.257292 127.496405 -0.000000 0.441530 0.440776 -0.195812 -1.702999 146.822002 -0.000000 0.192381 0.221268 -0.440324
0.095000 16.844865 126.908181 -0.000000 0.441573 0.440745 -0.195763 -2.148467 146.186387 -0.000000 0.192369 0.221299 -0.440355
0.100000 16.463082 126.417799 -0.000000 0.441612 0.440752 -0.195747 -2.473557 145.750942 -0.000000 0.192323 0.221335 -0.440314
0.105000 16.171766 126.074000 -0.000000 0.441655 0.440713 -0.195752 -2.600264 145.591044 -0.000000 0.192287 0.221368 -0.440313
0.110000 15.977638 125.906582 -0.000000 0.441688 0.440705 -0.195754 -2.467802 145.793855 -0.000000 0.192235 0.221399 -0.440335
0.115000 15.874939 125.918547 -0.000000 0.441718 0.440693 -0.195733 -2.030481 146.407072 -0.000000 0.192193 0.221406 -0.440328
0.120000 15.840540 126.098566 -0.000000 0.441734 0.440703 -0.195734 -1.287978 147.419289 -0.000000 0.192139 0.221423 -0.440327
0.125000 15.831123 126.428466 -0.000000 0.441721 0.440692 -0.195724 -0.279280 148.776311 -0.000000 0.192092 0.221429 -0.440310
0.130000 15.814640 126.885638 -0.000000 0.441721 0.440701 -0.195742 0.922852 150.376765 -0.000000 0.192069 0.221431 -0.440292
0.135000 15.785850 127.449515 -0.000000 0.441683 0.440719 -0.195735 2.202538 152.074303 -0.000000 0.192049 0.221414 -0.440297
0.140000 15.776367 128.096319 -0.000000 0.441640 0.440742 -0.195741 3.435752 153.707443 -0.000000 0.192048 0.221398 -0.440280
0.145000 15.789084 128.797334 -0.000000 0.441583 0.440773 -0.195739 4.461735 155.133863 -0.000000 0.192061 0.221340 -0.440286
0.150000 15.847095 129.514875 -0.000000 0.441515 0.440834 -0.195755 5.195174 156.251995 -0.000000 0.192092 0.221293 -0.440283
0.155000 15.977906 130.209967 -0.000000 0.441467 0.440878 -0.195839 5.627374 157.004623 -0.000000 0.192139 0.221235 -0.440288
0.160000 16.160522 130.850723 -0.000000 0.441404 0.440937 -0.195841 5.748359 157.378657 -0.000000 0.192199 0.221134 -0.440267
0.165000 16.402361 131.409376 -0.000000 0.441310 0.441005 -0.195856 5.611778 157.395624 -0.000000 0.192285 0.221036 -0.440262
0.170000 16.717130 131.867913 -0.000000 0.441233 0.441073 -0.195832 5.271629 157.089309 -0.000000 0.192379 0.220946 -0.440250
0.175000 17.069098 132.217887 -0.000000 0.441138 0.441142 -0.195838 4.715457 156.495532 -0.000000 0.192487 0.220830 -0.440259
0.180000 17.458499 132.447744 -0.000000 0.441067 0.441231 -0.195823 3.996945 155.653467 -0.000000 0.192592 0.220739 -0.440239
0.185000 17.856909 132.556041 -0.000000 0.441025 0.441283 -0.195836 3.168563 154.610758 -0.000000 0.192709 0.220658 -0.440231
0.190000 18.190736 132.551982 -0.000000 0.440976 0.441355 -0.195839 2.250138 153.433913 -0.000000 0.192812 0.220565 -0.440220
0.195000 18.456844 132.434418 -0.000000 0.440930 0.441407 -0.195823 1.333230 152.205932 -0.000000 0.192903 0.220514 -0.440245
0.200000 18.625553 132.211013 -0.000000 0.440921 0.441458 -0.195833 0.450342 151.009943 -0.000000 0.192997 0.220454 -0.440256
0.205000 18.720083 131.897960 -0.000000 0.440923 0.441481 -0.195848 -0.314787 149.922570 -0.000000 0.193050 0.220415 -0.440252
0.210000 18.720079 131.526757 -0.000000 0.440932 0.441537 -0.195847 -0.926730 149.013790 -0.000000 0.193085 0.220402 -0.440255
0.215000 18.627223 131.114564 -0.000000 0.440920 0.441542 -0.195802 -1.326590 148.340588 -0.000000 0.193111 0.220390 -0.440254
0.220000 18.424579 130.662907 -0.000000 0.440954 0.441572 -0.195814 -1.484003 147.938752 -0.000000 0.193121 0.220370 -0.440265
0.225000 18.112791 130.167540 -0.000000 0.440988 0.441583 -0.195809 -1.374783 147.816022 -0.000000 0.193113 0.220370 -0.440268
0.230000 17.692806 129.639475 -0.000000 0.441031 0.441593 -0.195822 -1.008454 147.965929 -0.000000 0.193097 0.220370 -0.440267
0.235000 17.206634 129.105008 -0.000000 0.441068 0.441574 -0.195815 -0.385077 148.378005 -0.000000 0.193078 0.220387 -0.440265
0.240000 16.679734 128.609168 -0.000000 0.441081 0.441601 -0.195834 0.433870 149.029495 -0.000000 0.193036 0.220397 -0.440266
0.245000 16.214449 128.193088 -0.000000 0.441126 0.441575 -0.195835 1.457828 149.892042 -0.000000 0.192981 0.220410 -0.440233
0.250000 15.819728 127.897266 -0.000000 0.441146 0.441593 -0.195833 2.589460 150.928704 -0.000000 0.192914 0.220439 -0.440223
0.255000 15.529669 127.733095 -0.000000 0.441175 0.441601 -0.195835 3.756502 152.078323 -0.000000 0.192861 0.220452 -0.440232
0.260000 15.352769 127.695186 -0.000000 0.441183 0.441596 -0.195845 4.870112 153.270689 -0.000000 0.192787 0.220446 -0.440219
0.265000 15.268547 127.770881 -0.000000 0.441170 0.441600 -0.195840 5.844018 154.443638 -0.000000 0.192746 0.220449 -0.440220
0.270000 15.258445 127.941357 -0.000000 0.441144 0.441616 -0.195841 6.633640 155.542404 -0.000000 0.192709 0.220438 -0.440251
0.275000 15.286014 128.191355 -0.000000 0.441066 0.441641 -0.195775 7.193446 156.518440 -0.000000 0.192697 0.220422 -0.440250
